<mxfile host="app.diagrams.net" modified="2023-11-14T07:48:27.087Z" agent="Mozilla/5.0 (Macintosh; Intel Mac OS X 10_15_7) AppleWebKit/537.36 (KHTML, like Gecko) Chrome/119.0.0.0 Safari/537.36" etag="KIaoaSefh-2ftv9lOurH" version="22.1.0" type="github">
  <diagram id="rG2bPAzRM2uypR8tDuPK" name="第 1 页">
    <mxGraphModel dx="435" dy="268" grid="0" gridSize="10" guides="1" tooltips="1" connect="1" arrows="1" fold="1" page="1" pageScale="1" pageWidth="827" pageHeight="1169" math="0" shadow="0">
      <root>
        <mxCell id="0" />
        <mxCell id="1" parent="0" />
        <mxCell id="AOaNKjkjyzzFQx9d7E9n-30" value="" style="rounded=0;whiteSpace=wrap;html=1;" vertex="1" parent="1">
          <mxGeometry x="464" y="511.09000000000003" width="18" height="60" as="geometry" />
        </mxCell>
        <mxCell id="QwRjlPLp69RYTndlWx4V-12" value="" style="rounded=0;whiteSpace=wrap;html=1;labelBackgroundColor=#FFFFFF;" parent="1" vertex="1">
          <mxGeometry x="220" y="207" width="120" height="218" as="geometry" />
        </mxCell>
        <mxCell id="QwRjlPLp69RYTndlWx4V-9" value="" style="edgeStyle=orthogonalEdgeStyle;rounded=0;orthogonalLoop=1;jettySize=auto;html=1;" parent="1" source="QwRjlPLp69RYTndlWx4V-2" target="QwRjlPLp69RYTndlWx4V-3" edge="1">
          <mxGeometry relative="1" as="geometry" />
        </mxCell>
        <mxCell id="QwRjlPLp69RYTndlWx4V-2" value="开始" style="rounded=1;whiteSpace=wrap;html=1;" parent="1" vertex="1">
          <mxGeometry x="332" y="59" width="94" height="29" as="geometry" />
        </mxCell>
        <mxCell id="QwRjlPLp69RYTndlWx4V-10" style="edgeStyle=orthogonalEdgeStyle;rounded=0;orthogonalLoop=1;jettySize=auto;html=1;" parent="1" source="QwRjlPLp69RYTndlWx4V-3" target="QwRjlPLp69RYTndlWx4V-7" edge="1">
          <mxGeometry relative="1" as="geometry" />
        </mxCell>
        <mxCell id="QwRjlPLp69RYTndlWx4V-11" style="edgeStyle=orthogonalEdgeStyle;rounded=0;orthogonalLoop=1;jettySize=auto;html=1;" parent="1" source="QwRjlPLp69RYTndlWx4V-3" target="QwRjlPLp69RYTndlWx4V-8" edge="1">
          <mxGeometry relative="1" as="geometry" />
        </mxCell>
        <mxCell id="QwRjlPLp69RYTndlWx4V-3" value="老师发起连麦" style="rounded=0;whiteSpace=wrap;html=1;" parent="1" vertex="1">
          <mxGeometry x="332" y="131" width="94" height="33" as="geometry" />
        </mxCell>
        <mxCell id="QwRjlPLp69RYTndlWx4V-7" value="viideo_mic_notice" style="rounded=0;whiteSpace=wrap;html=1;" parent="1" vertex="1">
          <mxGeometry x="225" y="220" width="110" height="33" as="geometry" />
        </mxCell>
        <mxCell id="QwRjlPLp69RYTndlWx4V-8" value="video_mic&lt;br&gt;video_mic_f" style="rounded=0;whiteSpace=wrap;html=1;" parent="1" vertex="1">
          <mxGeometry x="426" y="220" width="110" height="33" as="geometry" />
        </mxCell>
        <mxCell id="QwRjlPLp69RYTndlWx4V-14" value="&lt;div&gt;&lt;font color=&quot;#b5739d&quot;&gt;type:125,&amp;nbsp;&lt;/font&gt;&lt;/div&gt;&lt;div&gt;&lt;font color=&quot;#b5739d&quot;&gt;&amp;nbsp;&lt;/font&gt;&lt;/div&gt;&lt;div&gt;&lt;font color=&quot;#b5739d&quot;&gt;&quot;status:&lt;/font&gt;&lt;/div&gt;&lt;div&gt;&lt;font color=&quot;#b5739d&quot;&gt;{&lt;/font&gt;&lt;/div&gt;&lt;div&gt;&lt;font color=&quot;#b5739d&quot;&gt;&amp;nbsp; 1:开始连麦&lt;/font&gt;&lt;/div&gt;&lt;div&gt;&lt;font color=&quot;#b5739d&quot;&gt;&amp;nbsp; 2:关闭连麦&lt;/font&gt;&lt;/div&gt;&lt;div&gt;&lt;font color=&quot;#b5739d&quot;&gt;&amp;nbsp; 4:选中上麦学生&lt;/font&gt;&lt;/div&gt;&lt;div&gt;&lt;font color=&quot;#b5739d&quot;&gt;&amp;nbsp; 8:老师离开直播间&lt;/font&gt;&lt;/div&gt;&lt;div&gt;&lt;font color=&quot;#b5739d&quot;&gt;}&lt;/font&gt;&lt;/div&gt;" style="text;html=1;strokeColor=none;fillColor=none;align=left;verticalAlign=middle;whiteSpace=wrap;rounded=0;labelBackgroundColor=#FFFFFF;" parent="1" vertex="1">
          <mxGeometry x="225" y="257" width="107" height="154" as="geometry" />
        </mxCell>
        <mxCell id="AOaNKjkjyzzFQx9d7E9n-1" value="" style="shape=parallelogram;perimeter=parallelogramPerimeter;whiteSpace=wrap;html=1;fixedSize=1;rotation=-30;size=32.333028640930564;fillColor=#ffcccc;strokeColor=default;" vertex="1" parent="1">
          <mxGeometry x="106" y="529" width="120" height="60" as="geometry" />
        </mxCell>
        <mxCell id="AOaNKjkjyzzFQx9d7E9n-2" value="" style="shape=parallelogram;perimeter=parallelogramPerimeter;whiteSpace=wrap;html=1;fixedSize=1;rotation=-30;size=24.44981070295529;fillColor=#cce5ff;strokeColor=#36393d;dashed=1;" vertex="1" parent="1">
          <mxGeometry x="248.54000000000002" y="529.48" width="80.93" height="41.93" as="geometry" />
        </mxCell>
        <mxCell id="AOaNKjkjyzzFQx9d7E9n-11" value="" style="endArrow=none;dashed=1;html=1;rounded=0;endFill=0;startArrow=none;startFill=0;exitX=1;exitY=0;exitDx=0;exitDy=0;entryX=0;entryY=0.5;entryDx=0;entryDy=0;" edge="1" parent="1">
          <mxGeometry width="50" height="50" relative="1" as="geometry">
            <mxPoint x="174.00421356237356" y="569.7657864376265" as="sourcePoint" />
            <mxPoint x="288.58999999999645" y="551.09" as="targetPoint" />
          </mxGeometry>
        </mxCell>
        <mxCell id="AOaNKjkjyzzFQx9d7E9n-14" value="" style="ellipse;whiteSpace=wrap;html=1;strokeColor=#6f57e5;" vertex="1" parent="1">
          <mxGeometry x="286" y="544.09" width="10" height="12" as="geometry" />
        </mxCell>
        <mxCell id="AOaNKjkjyzzFQx9d7E9n-15" value="" style="rounded=0;orthogonalLoop=1;jettySize=auto;html=1;endArrow=none;endFill=0;exitX=1;exitY=0.5;exitDx=0;exitDy=0;" edge="1" parent="1">
          <mxGeometry relative="1" as="geometry">
            <mxPoint x="478" y="523" as="sourcePoint" />
            <mxPoint x="292" y="550" as="targetPoint" />
            <Array as="points" />
          </mxGeometry>
        </mxCell>
        <mxCell id="AOaNKjkjyzzFQx9d7E9n-21" value="摄像头" style="text;html=1;strokeColor=none;fillColor=none;align=center;verticalAlign=middle;whiteSpace=wrap;rounded=0;fontSize=8;" vertex="1" parent="1">
          <mxGeometry x="261" y="605" width="60" height="30" as="geometry" />
        </mxCell>
        <mxCell id="AOaNKjkjyzzFQx9d7E9n-22" value="&lt;font style=&quot;font-size: 8px;&quot;&gt;成像&lt;/font&gt;" style="text;html=1;strokeColor=none;fillColor=none;align=center;verticalAlign=middle;whiteSpace=wrap;rounded=0;" vertex="1" parent="1">
          <mxGeometry x="140" y="605" width="60" height="30" as="geometry" />
        </mxCell>
        <mxCell id="AOaNKjkjyzzFQx9d7E9n-24" value="" style="ellipse;whiteSpace=wrap;html=1;aspect=fixed;" vertex="1" parent="1">
          <mxGeometry x="468" y="519" width="10" height="10" as="geometry" />
        </mxCell>
        <mxCell id="AOaNKjkjyzzFQx9d7E9n-25" value="" style="ellipse;whiteSpace=wrap;html=1;aspect=fixed;" vertex="1" parent="1">
          <mxGeometry x="468" y="553.18" width="10" height="10" as="geometry" />
        </mxCell>
        <mxCell id="AOaNKjkjyzzFQx9d7E9n-31" value="" style="ellipse;whiteSpace=wrap;html=1;aspect=fixed;" vertex="1" parent="1">
          <mxGeometry x="168" y="568.18" width="4" height="4" as="geometry" />
        </mxCell>
        <mxCell id="AOaNKjkjyzzFQx9d7E9n-36" value="" style="endArrow=none;dashed=1;html=1;rounded=0;endFill=0;startArrow=none;startFill=0;exitX=1;exitY=0.5;exitDx=0;exitDy=0;entryX=0;entryY=0.5;entryDx=0;entryDy=0;" edge="1" parent="1" source="AOaNKjkjyzzFQx9d7E9n-33" target="AOaNKjkjyzzFQx9d7E9n-14">
          <mxGeometry width="50" height="50" relative="1" as="geometry">
            <mxPoint x="184.00421356237356" y="579.7657864376265" as="sourcePoint" />
            <mxPoint x="298.58999999999645" y="561.09" as="targetPoint" />
          </mxGeometry>
        </mxCell>
        <mxCell id="AOaNKjkjyzzFQx9d7E9n-33" value="" style="ellipse;whiteSpace=wrap;html=1;aspect=fixed;" vertex="1" parent="1">
          <mxGeometry x="168" y="551.0899999999999" width="4" height="4" as="geometry" />
        </mxCell>
        <mxCell id="AOaNKjkjyzzFQx9d7E9n-39" value="" style="strokeWidth=1;html=1;shape=mxgraph.flowchart.annotation_2;align=left;labelPosition=right;pointerEvents=1;rotation=90;fillColor=default;strokeColor=#99CCFF;" vertex="1" parent="1">
          <mxGeometry x="225.75" y="476.25" width="8" height="119.5" as="geometry" />
        </mxCell>
        <mxCell id="AOaNKjkjyzzFQx9d7E9n-37" value="" style="rounded=0;orthogonalLoop=1;jettySize=auto;html=1;endArrow=none;endFill=0;entryX=0;entryY=0.5;entryDx=0;entryDy=0;" edge="1" parent="1">
          <mxGeometry relative="1" as="geometry">
            <mxPoint x="468" y="557" as="sourcePoint" />
            <mxPoint x="290.9999999999965" y="550.09" as="targetPoint" />
            <Array as="points" />
          </mxGeometry>
        </mxCell>
        <mxCell id="AOaNKjkjyzzFQx9d7E9n-40" value="焦距" style="text;html=1;strokeColor=none;fillColor=none;align=center;verticalAlign=middle;whiteSpace=wrap;rounded=0;fontSize=8;" vertex="1" parent="1">
          <mxGeometry x="202" y="509" width="60" height="30" as="geometry" />
        </mxCell>
        <mxCell id="AOaNKjkjyzzFQx9d7E9n-41" value="" style="strokeWidth=1;html=1;shape=mxgraph.flowchart.annotation_2;align=left;labelPosition=right;pointerEvents=1;rotation=90;fillColor=default;strokeColor=#99CCFF;" vertex="1" parent="1">
          <mxGeometry x="377" y="415" width="8" height="178" as="geometry" />
        </mxCell>
        <mxCell id="AOaNKjkjyzzFQx9d7E9n-42" value="物距" style="text;html=1;strokeColor=none;fillColor=none;align=center;verticalAlign=middle;whiteSpace=wrap;rounded=0;fontSize=8;" vertex="1" parent="1">
          <mxGeometry x="351" y="478" width="60" height="30" as="geometry" />
        </mxCell>
        <mxCell id="AOaNKjkjyzzFQx9d7E9n-44" value="" style="strokeWidth=1;html=1;shape=mxgraph.flowchart.annotation_2;align=left;labelPosition=right;pointerEvents=1;rotation=-180;fillColor=default;strokeColor=#CC99FF;" vertex="1" parent="1">
          <mxGeometry x="490" y="524.5" width="8" height="33.18" as="geometry" />
        </mxCell>
        <mxCell id="AOaNKjkjyzzFQx9d7E9n-45" value="瞳距" style="text;html=1;strokeColor=none;fillColor=none;align=center;verticalAlign=middle;whiteSpace=wrap;rounded=0;fontSize=8;" vertex="1" parent="1">
          <mxGeometry x="482" y="526.09" width="60" height="30" as="geometry" />
        </mxCell>
        <mxCell id="AOaNKjkjyzzFQx9d7E9n-46" value="人脸" style="text;html=1;strokeColor=none;fillColor=none;align=center;verticalAlign=middle;whiteSpace=wrap;rounded=0;fontSize=8;" vertex="1" parent="1">
          <mxGeometry x="443" y="605" width="60" height="30" as="geometry" />
        </mxCell>
        <mxCell id="AOaNKjkjyzzFQx9d7E9n-51" value="瞳距" style="text;html=1;strokeColor=none;fillColor=none;align=center;verticalAlign=middle;whiteSpace=wrap;rounded=0;fontSize=8;" vertex="1" parent="1">
          <mxGeometry x="112" y="546.59" width="60" height="30" as="geometry" />
        </mxCell>
        <mxCell id="AOaNKjkjyzzFQx9d7E9n-50" value="" style="strokeWidth=1;html=1;shape=mxgraph.flowchart.annotation_2;align=left;labelPosition=right;pointerEvents=1;rotation=0;strokeColor=#99CCFF;" vertex="1" parent="1">
          <mxGeometry x="156" y="551" width="8" height="21.18" as="geometry" />
        </mxCell>
        <mxCell id="AOaNKjkjyzzFQx9d7E9n-55" value="" style="ellipse;whiteSpace=wrap;html=1;" vertex="1" parent="1">
          <mxGeometry x="195.5" y="734.12" width="64.5" height="83" as="geometry" />
        </mxCell>
        <mxCell id="AOaNKjkjyzzFQx9d7E9n-58" value="" style="ellipse;whiteSpace=wrap;html=1;aspect=fixed;fillColor=none;" vertex="1" parent="1">
          <mxGeometry x="213" y="754" width="7" height="7" as="geometry" />
        </mxCell>
        <mxCell id="AOaNKjkjyzzFQx9d7E9n-60" value="" style="ellipse;whiteSpace=wrap;html=1;aspect=fixed;fillColor=none;" vertex="1" parent="1">
          <mxGeometry x="237" y="754" width="7" height="7" as="geometry" />
        </mxCell>
        <mxCell id="AOaNKjkjyzzFQx9d7E9n-61" value="" style="verticalLabelPosition=bottom;verticalAlign=top;html=1;shape=mxgraph.basic.arc;startAngle=0.4904621378820819;endAngle=0.011122702613081634;rotation=90;" vertex="1" parent="1">
          <mxGeometry x="221.87" y="775.62" width="14.75" height="8" as="geometry" />
        </mxCell>
        <mxCell id="AOaNKjkjyzzFQx9d7E9n-63" value="" style="ellipse;whiteSpace=wrap;html=1;" vertex="1" parent="1">
          <mxGeometry x="216" y="793" width="26" height="6" as="geometry" />
        </mxCell>
        <mxCell id="AOaNKjkjyzzFQx9d7E9n-65" value="" style="ellipse;whiteSpace=wrap;html=1;aspect=fixed;fillColor=none;strokeColor=#0000CC;strokeWidth=2;" vertex="1" parent="1">
          <mxGeometry x="229" y="796" width="1" height="1" as="geometry" />
        </mxCell>
        <mxCell id="AOaNKjkjyzzFQx9d7E9n-68" value="" style="ellipse;whiteSpace=wrap;html=1;aspect=fixed;fillColor=none;strokeColor=#0000CC;strokeWidth=2;" vertex="1" parent="1">
          <mxGeometry x="229" y="778" width="1" height="1" as="geometry" />
        </mxCell>
        <mxCell id="AOaNKjkjyzzFQx9d7E9n-69" value="" style="ellipse;whiteSpace=wrap;html=1;aspect=fixed;fillColor=none;strokeColor=#0000CC;strokeWidth=2;" vertex="1" parent="1">
          <mxGeometry x="240" y="757" width="1" height="1" as="geometry" />
        </mxCell>
        <mxCell id="AOaNKjkjyzzFQx9d7E9n-70" value="" style="ellipse;whiteSpace=wrap;html=1;aspect=fixed;fillColor=none;strokeColor=#0000CC;strokeWidth=2;" vertex="1" parent="1">
          <mxGeometry x="216" y="757" width="1" height="1" as="geometry" />
        </mxCell>
        <mxCell id="AOaNKjkjyzzFQx9d7E9n-71" value="x1,y1" style="text;html=1;strokeColor=none;fillColor=none;align=center;verticalAlign=middle;whiteSpace=wrap;rounded=0;fontSize=6;" vertex="1" parent="1">
          <mxGeometry x="202" y="758" width="26" height="14" as="geometry" />
        </mxCell>
        <mxCell id="AOaNKjkjyzzFQx9d7E9n-72" value="x2,y2" style="text;html=1;strokeColor=none;fillColor=none;align=center;verticalAlign=middle;whiteSpace=wrap;rounded=0;fontSize=6;" vertex="1" parent="1">
          <mxGeometry x="227.5" y="758" width="26" height="14" as="geometry" />
        </mxCell>
        <mxCell id="AOaNKjkjyzzFQx9d7E9n-73" value="x3,y3" style="text;html=1;strokeColor=none;fillColor=none;align=center;verticalAlign=middle;whiteSpace=wrap;rounded=0;fontSize=6;" vertex="1" parent="1">
          <mxGeometry x="217" y="776.12" width="26" height="14" as="geometry" />
        </mxCell>
        <mxCell id="AOaNKjkjyzzFQx9d7E9n-74" value="x4,y4" style="text;html=1;strokeColor=none;fillColor=none;align=center;verticalAlign=middle;whiteSpace=wrap;rounded=0;fontSize=6;" vertex="1" parent="1">
          <mxGeometry x="216" y="796.12" width="26" height="14" as="geometry" />
        </mxCell>
      </root>
    </mxGraphModel>
  </diagram>
</mxfile>
